<svg xmlns="http://www.w3.org/2000/svg" viewBox="0 0 24 24"><title>27.Pin</title><g id="_27.Pin" data-name="27.Pin"><path d="M13.376,24H10.624l-.282-.248C10,23.455,2,16.38,2,10a10,10,0,0,1,20,0c0,6.38-8,13.455-8.342,13.752Zm-1.99-2h1.227C13.979,20.735,20,14.877,20,10A8,8,0,0,0,4,10C4,14.886,10.021,20.737,11.386,22Z"/><path d="M12,15a5,5,0,1,1,5-5A5.006,5.006,0,0,1,12,15Zm0-8a3,3,0,1,0,3,3A3,3,0,0,0,12,7Z"/><path d="M5.742,23.239C2.093,22.265,0,20.538,0,18.5c0-1.83,1.662-3.4,4.68-4.418l.64,1.894C3.3,16.657,2,17.648,2,18.5c0,.831,1.316,2.021,4.258,2.806Z"/><path d="M17.2,23.488,16.8,21.53c3.417-.714,5.2-2.065,5.2-3.03,0-.866-1.335-1.867-3.4-2.551l.629-1.9C22.305,15.069,24,16.649,24,18.5,24,20.734,21.46,22.6,17.2,23.488Z"/></g></svg>