<svg xmlns="http://www.w3.org/2000/svg" viewBox="0 0 64 64"><title>route</title><g id="route"><path d="M49,8a7,7,0,0,0-7,6.91C42,21.81,49,25,49,25s7-3.19,7-10.09A7,7,0,0,0,49,8Zm0,9.88a2.94,2.94,0,1,1,3-2.94A3,3,0,0,1,49,17.88Z"/><polygon points="8 56 10.11 49 8 42 21 49 8 56"/><path d="M49,28H25a1,1,0,0,1,0-2H49a1,1,0,0,1,0,2Z"/><path d="M47.5,50H36a1,1,0,0,1,0-2H47.5a4.5,4.5,0,0,0,0-9H47a1,1,0,0,1,0-2h.5a6.5,6.5,0,0,1,0,13Z"/><path d="M30,50H24a1,1,0,0,1,0-2h6a1,1,0,0,1,0,2Z"/><path d="M41,39H16.5a6.5,6.5,0,1,1,0-13H19a1,1,0,0,1,0,2H16.5a4.5,4.5,0,0,0,0,9H41a1,1,0,0,1,0,2Z"/><circle cx="22" cy="27" r="3"/><circle cx="44" cy="38" r="3"/><circle cx="33" cy="49" r="3"/></g></svg>